<svg width="24" height="25" viewBox="0 0 24 25" fill="none" xmlns="http://www.w3.org/2000/svg">
<path d="M23.8535 23.1331L16.8817 15.9458C18.204 14.2628 19 12.1232 19 9.79368C19 4.39347 14.7383 0 9.49999 0C4.2617 0 0 4.39347 0 9.79368C0 15.1939 4.26175 19.5874 9.50004 19.5874C11.7597 19.5874 13.8351 18.7667 15.4677 17.4035L22.4395 24.5909C22.6348 24.7921 22.9513 24.7921 23.1467 24.5909L23.8536 23.862C24.0488 23.6607 24.0488 23.3344 23.8535 23.1331ZM9.50004 17.5255C5.3643 17.5255 2.00002 14.0573 2.00002 9.79368C2.00002 5.5301 5.3643 2.06184 9.50004 2.06184C13.6358 2.06184 17.0001 5.5301 17.0001 9.79368C17.0001 14.0573 13.6358 17.5255 9.50004 17.5255Z" fill="black"/>
</svg>
