<svg width="70" height="71" viewBox="0 0 70 71" fill="none" xmlns="http://www.w3.org/2000/svg">
<path d="M24.9614 53.811L23.4486 52.2995H22.02C21.0986 52.2995 20.2329 51.941 19.5814 51.2895C18.93 50.6381 18.5714 49.771 18.5714 48.851V47.4224L17.06 45.911L20.9529 42.7967L19.1686 40.5652L3.79571 52.8624C1.38286 54.791 0 57.6695 0 60.7595C0 66.3353 4.53572 70.871 10.1129 70.871C13.2 70.871 16.0786 69.4881 18.0086 67.0767L30.3057 51.7038L28.0743 49.9181L24.9614 53.811ZM15.7771 65.291C14.3929 67.0224 12.3271 68.0138 10.1129 68.0138C6.11143 68.0138 2.85714 64.7595 2.85714 60.7595C2.85714 58.5424 3.85 56.4781 5.58 55.0938L14.8157 47.7052L15.7157 48.6053V48.851C15.7157 50.5352 16.3714 52.1181 17.5614 53.3095C18.7514 54.501 20.3343 55.1567 22.02 55.1567H22.2657L23.1657 56.0567L15.7771 65.291Z" fill="white"/>
<path d="M56.63 13.7281H54.3829C52.7129 10.1395 50.5714 7.47097 48.7529 5.63097C50 5.89955 51.2186 6.30097 52.4143 6.79526C53.3 9.41669 54.7514 11.7753 56.63 13.7281ZM65.6414 28.0138C65.4371 31.0924 64.5957 33.9967 63.2229 36.5853H55.5129C56.3657 34.0867 56.9414 31.231 57.08 28.0138H65.6414ZM52.4786 36.5853H36.0929C35.1557 34.1424 34.5029 31.2881 34.3486 28.0138H54.2243C54.0686 31.2881 53.4157 34.1424 52.4786 36.5853ZM44.2857 47.6938C42.87 46.6296 39.7714 43.9438 37.3871 39.4424H51.1843C48.8 43.9467 45.7 46.631 44.2857 47.6938ZM22.93 28.0138H31.4914C31.63 31.231 32.2043 34.0867 33.0586 36.5853H25.3486C23.9757 33.9967 23.1343 31.0924 22.93 28.0138ZM22.93 25.1567C23.1343 22.0781 23.9757 19.1738 25.3486 16.5853H33.0586C32.2057 19.0838 31.63 21.941 31.4914 25.1567H22.93ZM34.3486 25.1567C34.5029 21.8824 35.1557 19.0281 36.0929 16.5853H52.4786C53.4157 19.0281 54.0686 21.8824 54.2229 25.1567H34.3486ZM37.3871 13.7281C39.7714 9.22526 42.87 6.54097 44.2857 5.47669C45.7014 6.54097 48.8 9.22669 51.1843 13.7281H37.3871ZM39.8171 5.6324C37.9986 7.47383 35.8586 10.141 34.19 13.7281H27.1843C30.2386 9.67383 34.6814 6.72669 39.8171 5.6324ZM27.1829 39.4424H34.1886C35.8586 43.0295 37.9971 45.6967 39.8157 47.5381C34.6814 46.4438 30.2386 43.4967 27.1829 39.4424ZM48.7543 47.5381C50.5729 45.6967 52.7129 43.0295 54.3814 39.4424H61.3871C58.3329 43.4967 53.89 46.4438 48.7543 47.5381ZM65.64 25.1567H57.08C56.9414 21.941 56.3671 19.0838 55.5129 16.5853H60.1471C61.37 17.3553 62.6843 17.9867 64.0757 18.4567C64.9657 20.611 65.4857 22.8553 65.64 25.1567Z" fill="white"/>
</svg>
