<svg width="72" height="50" viewBox="0 0 72 50" fill="none" xmlns="http://www.w3.org/2000/svg">
<path d="M56.2455 15.1613H14.9326L21.1528 0.645142H50.0268L56.2455 15.1613ZM19.3354 12.258H51.8442L48.1136 3.54837H23.066L19.3354 12.258Z" fill="white"/>
<path d="M71.1784 50H0L6.22161 35.4839H64.9553L71.1784 50ZM4.40419 47.0968H66.7757L63.0436 38.3871H8.13629L4.40419 47.0968Z" fill="white"/>
<path d="M63.7129 32.5806H7.46582L13.6874 18.0644H57.4913L63.7129 32.5806ZM11.8686 29.6773H59.3102L55.5781 20.9677H15.6007L11.8686 29.6773Z" fill="white"/>
<path d="M58.8154 41.2903H61.7187V44.1935H58.8154V41.2903Z" fill="white"/>
<path d="M53.0088 41.2903H55.912V44.1935H53.0088V41.2903Z" fill="white"/>
<path d="M47.2021 41.2903H50.1054V44.1935H47.2021V41.2903Z" fill="white"/>
<path d="M16.7188 23.8709H19.622V26.7742H16.7188V23.8709Z" fill="white"/>
<path d="M22.5244 23.8709H25.4276V26.7742H22.5244V23.8709Z" fill="white"/>
<path d="M28.3311 23.8709H31.2343V26.7742H28.3311V23.8709Z" fill="white"/>
<path d="M42.8477 6.45162H45.7509V9.35485H42.8477V6.45162Z" fill="white"/>
<path d="M37.041 6.45162H39.9442V9.35485H37.041V6.45162Z" fill="white"/>
<path d="M31.2344 6.45162H34.1376V9.35485H31.2344V6.45162Z" fill="white"/>
</svg>
