<svg width="72" height="71" viewBox="0 0 72 71" fill="none" xmlns="http://www.w3.org/2000/svg">
<path d="M59.5181 32.9469V17.2421H66.6605L51.5479 0.756348L47.2326 5.46218L48.912 7.00157L51.5479 4.12433L61.4844 14.9649H57.2409V30.4624L56.1023 29.2214L44.8984 41.4431L46.5779 42.9813L56.1023 32.5893L66.0388 43.4299H61.7953V57.0931H64.0725V45.7071H71.2149L59.5181 32.9469Z" fill="white"/>
<path d="M15.1126 29.2214L13.974 30.4624V14.9649H9.73048L19.667 4.12433L22.3029 7.00157L23.9823 5.46218L19.667 0.756348L4.5544 17.2421H11.6968V32.9469L0 45.7071H7.14244V57.0931H9.41964V43.4299H5.17608L15.1126 32.5893L24.637 42.9813L26.3165 41.4431L15.1126 29.2214Z" fill="white"/>
<path d="M34.4688 37.7369H36.746V61.6476H34.4688V37.7369Z" fill="white"/>
<path d="M35.6075 34.3212C27.446 34.3212 20.8057 27.6808 20.8057 19.5193C20.8057 11.3579 27.446 4.71755 35.6075 4.71755C43.769 4.71755 50.4093 11.3579 50.4093 19.5193C50.4093 27.6808 43.769 34.3212 35.6075 34.3212ZM35.6075 6.99475C28.7019 6.99475 23.0829 12.6137 23.0829 19.5193C23.0829 26.425 28.7019 32.0439 35.6075 32.0439C42.5131 32.0439 48.1321 26.425 48.1321 19.5193C48.1321 12.6137 42.5131 6.99475 35.6075 6.99475Z" fill="white"/>
<path d="M61.7949 59.3704H64.0721V61.6476H61.7949V59.3704Z" fill="white"/>
<path d="M61.7949 63.9248H64.0721V66.202H61.7949V63.9248Z" fill="white"/>
<path d="M61.7949 68.4792H64.0721V70.7564H61.7949V68.4792Z" fill="white"/>
<path d="M50.4092 57.0931H52.6864V59.3703H50.4092V57.0931Z" fill="white"/>
<path d="M50.4092 61.6475H52.6864V63.9247H50.4092V61.6475Z" fill="white"/>
<path d="M50.4092 66.202H52.6864V68.4792H50.4092V66.202Z" fill="white"/>
<path d="M7.14258 59.3704H9.41978V61.6476H7.14258V59.3704Z" fill="white"/>
<path d="M7.14258 63.9248H9.41978V66.202H7.14258V63.9248Z" fill="white"/>
<path d="M7.14258 68.4792H9.41978V70.7564H7.14258V68.4792Z" fill="white"/>
<path d="M18.5283 57.0931H20.8055V59.3703H18.5283V57.0931Z" fill="white"/>
<path d="M18.5283 61.6475H20.8055V63.9247H18.5283V61.6475Z" fill="white"/>
<path d="M18.5283 66.202H20.8055V68.4792H18.5283V66.202Z" fill="white"/>
</svg>
