<svg width="644" height="506" viewBox="0 0 644 506" fill="none" xmlns="http://www.w3.org/2000/svg">
<circle opacity="0.1" cx="444" cy="97" r="97" fill="#FB405C"/>
<path d="M275.963 475.614C396.662 475.614 494.507 377.427 494.507 256.307C494.507 135.187 396.662 37 275.963 37C155.264 37 57.4189 135.187 57.4189 256.307C57.4189 377.427 155.264 475.614 275.963 475.614Z" fill="#F2F2F2"/>
<path d="M86.7145 506C134.606 506 173.429 499.767 173.429 492.077C173.429 484.388 134.606 478.154 86.7145 478.154C38.8234 478.154 0 484.388 0 492.077C0 499.767 38.8234 506 86.7145 506Z" fill="#F2F2F2"/>
<path d="M509.741 491.847C583.842 491.847 643.914 482.202 643.914 470.305C643.914 458.407 583.842 448.762 509.741 448.762C435.639 448.762 375.567 458.407 375.567 470.305C375.567 482.202 435.639 491.847 509.741 491.847Z" fill="#F2F2F2"/>
<path d="M479.93 263.236C479.93 263.236 481.072 267.057 474.599 270.496C468.126 273.935 466.222 286.926 473.838 290.747C481.453 294.568 483.738 299.535 479.93 302.974C476.122 306.413 469.269 315.584 478.407 317.876C487.546 320.169 488.688 324.754 486.022 326.664C483.357 328.575 492.115 323.225 492.115 323.225C492.115 323.225 493.638 332.396 501.634 330.103C509.63 327.811 532.096 284.251 520.672 278.138C509.249 272.024 479.93 263.236 479.93 263.236Z" fill="#2F2E41"/>
<path d="M493.731 300.132C493.731 300.132 497.681 314.004 490.769 314.995C486.479 315.666 482.414 317.365 478.919 319.949L491.756 336.794H515.454L530.266 321.931C530.266 321.931 510.517 307.068 514.467 298.15C518.417 289.232 493.731 300.132 493.731 300.132Z" fill="#FFB9B9"/>
<path opacity="0.1" d="M493.731 300.132C493.731 300.132 497.681 314.004 490.769 314.995C486.479 315.666 482.414 317.365 478.919 319.949L491.756 336.794H515.454L530.266 321.931C530.266 321.931 510.517 307.068 514.467 298.15C518.417 289.232 493.731 300.132 493.731 300.132Z" fill="black"/>
<path d="M499.656 472.545L522.367 480.471L538.165 481.462L537.178 467.59L504.593 457.919L499.656 472.545Z" fill="#FFB9B9"/>
<path d="M528.785 469.572C528.785 469.572 528.785 483.444 530.76 483.444C532.734 483.444 559.395 480.471 567.295 483.444C575.194 486.417 587.043 475.517 581.119 469.572C575.194 463.626 565.53 454.709 559.5 456.69C553.47 458.672 528.785 463.626 528.785 463.626V469.572Z" fill="#04172A"/>
<path d="M456.209 456.69C456.209 456.69 444.359 480.471 452.259 482.453C460.158 484.435 469.045 481.462 470.033 480.471C471.02 479.48 484.844 475.517 486.819 477.499C488.794 479.48 488.794 469.572 488.794 469.572L456.209 456.69Z" fill="#04172A"/>
<path d="M466.083 423.991C466.083 423.991 447.322 449.754 461.146 456.69C474.97 463.626 541.128 463.626 546.065 456.69C551.002 449.754 552.977 427.955 546.065 425.973C539.153 423.991 466.083 423.991 466.083 423.991Z" fill="#2F2E41"/>
<path opacity="0.2" d="M466.083 423.991C466.083 423.991 447.322 449.754 461.146 456.69C474.97 463.626 541.128 463.626 546.065 456.69C551.002 449.754 552.977 427.955 546.065 425.973C539.153 423.991 466.083 423.991 466.083 423.991Z" fill="black"/>
<path d="M501.63 307.068C514.173 307.068 524.341 296.864 524.341 284.277C524.341 271.691 514.173 261.487 501.63 261.487C489.087 261.487 478.919 271.691 478.919 284.277C478.919 296.864 489.087 307.068 501.63 307.068Z" fill="#FFB9B9"/>
<path d="M466.083 319.949L485.832 315.986C485.832 315.986 490.769 331.84 506.568 328.867C522.367 325.894 526.316 315.986 526.316 315.986C526.316 315.986 538.165 320.94 539.153 320.94C540.14 320.94 552.977 325.894 552.977 328.867C552.977 331.84 538.165 361.566 538.165 361.566L540.14 415.073L467.07 413.092L472.008 360.575L466.083 319.949Z" fill="#FB405C"/>
<path d="M455.221 345.712C455.221 345.712 449.297 398.228 453.246 402.192C457.196 406.155 472.995 417.055 472.995 417.055V405.165L465.096 390.301L472.995 355.621L455.221 345.712Z" fill="#FFB9B9"/>
<path d="M557.42 344.226C557.42 344.226 553.964 398.228 553.964 400.21C553.964 402.192 545.077 409.128 542.115 409.128C539.153 409.128 537.178 404.174 537.178 404.174L544.09 396.247L539.153 355.621L557.42 344.226Z" fill="#FFB9B9"/>
<path d="M548.04 420.028C548.04 420.028 592.474 395.256 593.461 420.028C594.449 444.8 570.751 454.708 570.751 454.708C570.751 454.708 509.53 473.13 507.061 466.397C504.593 459.663 499.656 448.763 503.605 447.772C507.555 446.781 512.492 444.8 514.467 446.781C516.442 448.763 541.128 431.918 541.128 431.918L548.04 420.028Z" fill="#2F2E41"/>
<path opacity="0.2" d="M568.775 417.055C568.775 417.055 559.889 421.019 556.926 423.991C553.964 426.964 541.127 431.918 541.127 431.918" stroke="black" stroke-width="2" stroke-miterlimit="10"/>
<path d="M472.008 321.931L466.083 319.949C466.083 319.949 444.36 342.739 451.272 348.685C458.184 354.63 462.133 356.612 464.108 358.593C466.083 360.575 475.957 361.566 475.957 361.566L472.008 321.931Z" fill="#FB405C"/>
<path d="M544.09 326.885L552.977 328.867C552.977 328.867 559.889 343.73 561.863 345.712C563.838 347.694 558.901 346.703 555.939 350.666C552.977 354.63 550.014 361.566 544.09 361.566C538.165 361.566 530.266 351.657 530.266 351.657L544.09 326.885Z" fill="#FB405C"/>
<path d="M468.058 428.946C468.058 428.946 430.535 402.192 417.699 422.009C404.862 441.827 472.995 468.581 482.869 472.544C492.743 476.508 501.63 480.471 501.63 480.471C501.63 480.471 510.517 458.672 510.517 454.708C510.517 450.745 503.605 450.745 501.63 450.745C499.655 450.745 490.768 448.763 488.794 445.791C486.819 442.818 468.058 428.946 468.058 428.946Z" fill="#2F2E41"/>
<path opacity="0.2" d="M447.322 422.01C447.322 422.01 457.196 429.937 466.083 431.918C474.97 433.9 477.932 438.854 477.932 438.854" stroke="black" stroke-width="2" stroke-miterlimit="10"/>
<path d="M461.246 384.753L462.035 426.707C462.061 428.093 462.632 429.412 463.623 430.377C464.614 431.342 465.945 431.875 467.327 431.86L545.129 430.982C546.455 430.968 547.726 430.448 548.684 429.53C549.643 428.611 550.219 427.361 550.296 426.033L552.657 384.956C552.698 384.242 552.593 383.527 552.349 382.855C552.105 382.183 551.727 381.569 551.238 381.049C550.749 380.528 550.159 380.114 549.504 379.831C548.85 379.548 548.145 379.402 547.432 379.402H466.479C465.783 379.402 465.095 379.541 464.453 379.811C463.812 380.081 463.231 380.477 462.743 380.975C462.256 381.473 461.873 382.064 461.616 382.713C461.359 383.361 461.233 384.055 461.246 384.753Z" fill="#525364"/>
<path d="M502.844 255.649C502.844 255.649 504.109 259.881 496.938 263.691C489.767 267.501 487.658 281.892 496.094 286.125C504.531 290.358 507.062 295.861 502.844 299.671C498.625 303.48 491.033 313.639 501.156 316.179C511.28 318.719 512.545 323.798 509.593 325.914C506.64 328.031 516.342 322.105 516.342 322.105C516.342 322.105 518.029 332.264 526.887 329.724C535.745 327.184 544.583 281.018 534.709 269.127C525.528 258.071 502.844 255.649 502.844 255.649Z" fill="#2F2E41"/>
<path d="M500.149 251.292C500.151 245.09 518.64 249.546 526.567 258.205C532.056 264.201 540.394 273.221 533.407 279.58C526.42 285.939 545.383 294.274 550.468 296.801C555.554 299.329 565.595 307.057 556.528 312.242C547.462 317.426 547.608 322.66 551.02 323.899C554.432 325.139 543.498 322.057 543.498 322.057C543.498 322.057 544.602 332.296 535.39 332.247C526.177 332.198 499.748 281.392 506.061 267.27C511.932 254.14 500.149 251.292 500.149 251.292Z" fill="#2F2E41"/>
<path d="M504.154 249.933C479.43 248.439 476.948 267.114 476.948 267.114C477.119 277.922 494.222 272.656 498.973 274.267C504.704 270.13 515.751 262.302 523.651 256.716C517.915 252.663 511.159 250.312 504.154 249.933Z" fill="#2F2E41"/>
<path d="M497.11 369.105C497.11 369.105 474.932 264.803 336.118 189.139" stroke="#3F3D56" stroke-width="2" stroke-miterlimit="10"/>
<path d="M492.139 368.37L492.797 367.398L497.599 370.644L500.486 365.637L501.506 366.224L497.988 372.322L492.139 368.37Z" fill="#3F3D56"/>
<path d="M341.837 186.864L342.115 188.008L336.5 189.374L338.269 194.895L337.152 195.254L334.999 188.53L341.837 186.864Z" fill="#3F3D56"/>
<path d="M40.119 475.68C40.119 488.89 32.2934 493.503 22.6391 493.503C22.4155 493.503 22.1922 493.5 21.9692 493.495C21.5219 493.486 21.0789 493.464 20.6412 493.435C11.9284 492.816 5.15918 487.966 5.15918 475.68C5.15918 462.965 21.3505 446.922 22.5667 445.734L22.5688 445.732C22.6157 445.686 22.6391 445.664 22.6391 445.664C22.6391 445.664 40.119 462.469 40.119 475.68Z" fill="#FB405C"/>
<path d="M22.0024 491.482L28.3956 482.518L21.9864 492.466L21.9694 493.495C21.5221 493.486 21.079 493.464 20.6413 493.435L21.3304 480.218L21.3251 480.115L21.3368 480.096L21.4018 478.848L14.9766 468.874L21.422 477.911L21.4369 478.176L21.9577 468.19L16.4569 457.884L22.0248 466.437L22.5669 445.734L22.569 445.664V445.732L22.4785 462.058L27.9547 455.586L22.4561 463.464L22.3113 472.405L27.4244 463.824L22.29 473.721L22.209 478.691L29.6321 466.748L22.1813 480.426L22.0024 491.482Z" fill="#3F3D56"/>
<path d="M123.494 472.257L127.233 469.47C127.233 469.47 129.708 483.344 126.946 485.422C124.184 487.501 113.827 490.965 113.827 495.122C113.827 499.28 90.3511 504.823 89.6606 498.587C88.9702 492.351 91.732 488.887 91.732 488.887C91.732 488.887 102.78 477.8 104.161 475.722C105.541 473.643 108.994 469.486 108.994 469.486L123.494 472.257Z" fill="#2F2E41"/>
<path d="M68.2559 299.73C68.2559 299.73 68.3594 300.339 68.5389 301.455C68.7047 302.446 68.9325 303.845 69.2087 305.571C72.1087 323.329 80.567 375.607 79.9939 377.333C79.3034 379.411 74.4701 387.033 79.9939 389.112C80.5255 389.312 81.0986 389.964 81.7131 390.989C82.8992 393.198 83.877 395.513 84.6338 397.904C87.9274 407.494 91.4488 422.841 93.4857 433.47C94.3764 438.14 94.9839 441.895 95.1635 443.863C95.2259 444.318 95.2329 444.779 95.1842 445.235C94.4937 448.007 99.327 457.707 101.398 460.478C103.47 463.25 106.922 466.021 106.232 468.793C105.541 471.564 123.494 479.186 125.565 474.336C127.636 469.486 127.636 466.714 128.327 465.329C129.017 463.943 129.708 454.242 126.255 452.857C122.803 451.471 124.874 427.22 121.422 422.37C120.269 420.755 118.508 415.289 116.665 408.713C115.94 406.136 115.208 403.392 114.49 400.641C111.576 389.368 108.994 378.025 108.994 378.025L109.684 296.958L71.7082 292.108L70.7347 294.263L68.7944 298.538L68.2559 299.73Z" fill="#2F2E41"/>
<path d="M66.1852 432.763C66.1852 432.763 60.6615 427.22 57.8996 432.763C55.1377 438.306 52.3758 459.785 47.5425 464.636C42.7092 469.486 36.495 493.737 43.3997 495.122C50.3044 496.508 57.8996 493.044 58.59 488.886C59.2805 484.729 73.7804 463.25 73.7804 461.171C73.7804 459.093 64.1138 451.471 64.1138 451.471L66.1852 432.763Z" fill="#2F2E41"/>
<path d="M151.112 261.621C151.112 261.621 142.136 342.688 140.065 350.31C137.994 357.932 126.946 387.033 123.494 391.883C120.041 396.733 97.9462 436.227 95.1843 438.306C92.4225 440.385 86.8987 445.928 86.8987 445.928C86.8987 445.928 76.5416 456.321 75.1607 458.4C73.7797 460.478 62.0417 454.242 61.3513 450.085C60.6608 445.928 62.0417 438.999 62.7322 436.228C63.4227 433.456 61.3513 429.299 63.4227 427.22C65.4941 425.141 75.8512 414.748 75.8512 409.898C75.8512 405.048 93.8034 376.64 100.708 370.404C107.613 364.168 106.232 353.775 106.232 353.775V311.509L68.256 299.73C68.256 299.73 70.3274 266.471 75.1607 266.471C79.994 266.471 143.517 255.385 151.112 261.621Z" fill="#2F2E41"/>
<path d="M95.185 145.91C107.769 145.91 117.971 135.673 117.971 123.045C117.971 110.417 107.769 100.18 95.185 100.18C82.6009 100.18 72.3994 110.417 72.3994 123.045C72.3994 135.673 82.6009 145.91 95.185 145.91Z" fill="#9F616A"/>
<path d="M102.78 141.06C102.78 141.06 105.542 151.453 108.994 154.225C112.447 156.996 100.018 168.775 100.018 168.775L76.5422 170.161L72.3994 156.996C72.3994 156.996 79.9946 141.753 77.9232 132.052C75.8518 122.352 102.78 141.06 102.78 141.06Z" fill="#9F616A"/>
<path d="M112.446 152.839C112.446 152.839 106.232 153.532 104.851 155.61C103.47 157.689 93.8033 163.925 86.2081 162.539C78.6129 161.153 73.7796 159.075 72.3987 159.768C71.0177 160.46 68.2559 175.011 68.2559 175.011L75.851 197.183L74.4701 258.157L72.3987 274.786C72.3987 274.786 68.2559 269.243 84.8272 272.707C101.398 276.172 122.803 269.936 129.708 269.243C136.612 268.55 148.35 266.471 149.041 262.314C149.731 258.157 146.97 242.913 146.97 242.913L135.922 196.49L129.017 171.547L112.446 152.839Z" fill="#FB405C"/>
<path d="M105.915 149.712C105.915 149.712 111.756 146.603 113.827 149.374C115.898 152.146 142.136 156.303 142.136 158.382C142.136 160.461 147.66 216.584 146.279 221.434C144.898 226.284 149.041 231.827 149.041 231.827L153.874 252.614C153.874 252.614 166.993 292.108 161.47 293.494C155.946 294.88 151.112 293.494 149.041 293.494C146.97 293.494 147.66 267.164 142.136 260.236C136.613 253.307 129.017 235.985 127.636 232.52C126.256 229.056 108.994 181.247 109.684 175.704C110.375 170.161 105.915 149.712 105.915 149.712Z" fill="#D0CDE1"/>
<path d="M77.2322 152.839C77.2322 152.839 71.7084 152.839 71.018 154.225C70.3275 155.61 63.4228 164.618 60.6609 166.696C57.899 168.775 48.2324 177.783 48.2324 179.861C48.2324 181.94 68.2561 197.183 68.2561 197.183C68.2561 197.183 76.5417 238.063 72.3989 251.921C68.2561 265.779 62.0418 299.037 64.8037 301.116C67.5656 303.194 73.7798 303.887 73.7798 301.116C73.7798 298.344 77.9227 268.55 81.375 262.314C84.8274 256.078 95.1844 216.584 91.0416 205.498C86.8988 194.412 77.2322 152.839 77.2322 152.839Z" fill="#D0CDE1"/>
<path d="M168.375 221.434C168.375 221.434 169.065 242.913 161.47 254C153.875 265.086 149.042 277.558 149.042 277.558C149.042 277.558 136.613 274.093 134.542 269.936C132.471 265.779 119.352 269.243 119.352 267.857C119.352 266.471 135.232 259.543 136.613 258.157C137.994 256.771 142.828 256.771 145.589 254C148.351 251.228 149.042 244.992 149.042 244.992L151.804 226.977L168.375 221.434Z" fill="#9F616A"/>
<path d="M110.878 108.947C112.631 108.787 114.439 108.611 115.988 107.773C119.459 105.894 120.38 100.545 117.737 97.6066C117.009 96.8591 116.194 96.2015 115.31 95.6479L110.061 92.063C107.74 90.4775 105.364 88.866 102.656 88.1186C100.208 87.4426 97.6212 87.5121 95.0864 87.6702C90.1656 87.9771 85.2143 88.6111 80.5859 90.316C75.9576 92.0209 71.6401 94.8731 68.837 98.9432C64.3932 105.396 64.3321 114.098 66.7796 121.547C69.2271 128.995 73.8764 135.482 78.4574 141.837L80.8344 130.198C81.0461 129.162 81.3199 128.026 82.1791 127.412C84.3144 125.887 86.9265 129.018 89.5473 128.998C91.2312 128.985 92.645 127.595 93.2832 126.031C93.9213 124.467 93.9634 122.735 94.111 121.052C94.4237 117.487 95.6656 112.525 99.0304 110.559C102.166 108.727 107.354 109.268 110.878 108.947Z" fill="#2F2E41"/>
<path opacity="0.1" d="M109.6 300.289C109.6 300.289 107.268 367.979 105.887 370.057C104.506 372.136 105.887 300.076 105.887 300.076L109.6 300.289Z" fill="black"/>
<path d="M136.613 158.382H142.137C142.137 158.382 165.613 190.254 162.851 192.333C160.089 194.412 162.851 199.955 162.851 199.955L168.375 210.348C168.375 210.348 175.28 216.584 173.208 217.97C171.137 219.355 168.375 224.898 168.375 224.898C168.375 224.898 154.566 222.82 150.423 231.134L141.467 219.789L136.613 158.382Z" fill="#D0CDE1"/>
<path d="M138.566 168.634L119.611 176.488L134.197 211.933L153.152 204.079L138.566 168.634Z" fill="#2F2E41"/>
<path d="M136.344 189.423C138.437 188.555 139.491 186.287 138.697 184.357C137.902 182.427 135.561 181.566 133.468 182.433C131.374 183.301 130.321 185.569 131.115 187.499C131.909 189.429 134.25 190.29 136.344 189.423Z" fill="#FB405C"/>
<path d="M122.804 213.812C122.804 213.812 73.0897 255.385 64.804 242.221C56.5184 229.056 73.7802 217.97 73.7802 217.97C73.7802 217.97 88.9705 218.663 106.232 207.577L123.494 199.955C123.494 199.955 139.253 177.378 144.623 185.975C149.993 194.572 135.456 209.535 122.804 213.812Z" fill="#9F616A"/>
<path d="M55.8278 177.09L48.2326 179.861V200.648L45.4707 204.805C45.4707 204.805 46.1612 213.12 48.2326 215.198C50.304 217.277 54.4468 216.584 53.0659 221.434C52.2359 224.596 52.0018 227.886 52.3754 231.134C52.3754 231.134 64.8039 247.071 65.4944 244.992C66.1848 242.913 75.8514 217.277 77.2324 217.277C78.6133 217.277 63.423 177.09 63.423 177.09H55.8278Z" fill="#D0CDE1"/>
<path d="M146.624 282.061C146.624 282.061 153.764 275.133 150.194 274.786C146.624 274.44 134.196 267.511 132.125 270.975C130.053 274.44 146.624 282.061 146.624 282.061Z" fill="#2F2E41"/>
<path d="M282.408 149.888C287.909 149.888 292.368 147.518 292.368 144.596C292.368 141.673 287.909 139.304 282.408 139.304C276.907 139.304 272.447 141.673 272.447 144.596C272.447 147.518 276.907 149.888 282.408 149.888Z" fill="#FB405C"/>
<path d="M320.492 162.235C298.032 153.722 275.572 153.722 253.112 162.235V134.601C275.083 127.948 298.521 127.948 320.492 134.601V162.235Z" stroke="#3F3D56" stroke-width="2" stroke-miterlimit="10"/>
<path d="M311.118 156.52C294.908 150.376 278.697 150.376 262.487 156.52V136.575C278.344 131.774 295.261 131.774 311.118 136.575V156.52Z" stroke="#3F3D56" stroke-width="2" stroke-miterlimit="10"/>
<path d="M285.923 147.536C291.424 147.536 295.884 145.167 295.884 142.244C295.884 139.322 291.424 136.953 285.923 136.953C280.422 136.953 275.963 139.322 275.963 142.244C275.963 145.167 280.422 147.536 285.923 147.536Z" stroke="#3F3D56" stroke-width="2" stroke-miterlimit="10"/>
<path d="M289.732 183.027C295.121 181.923 299.019 178.707 298.436 175.843C297.854 172.98 293.012 171.553 287.623 172.657C282.233 173.761 278.335 176.977 278.918 179.841C279.5 182.704 284.342 184.131 289.732 183.027Z" fill="#FB405C"/>
<path d="M329.507 187.482C305.804 183.649 283.798 188.156 263.488 201.003L257.981 173.928C278.182 163 301.147 158.297 324 160.406L329.507 187.482Z" stroke="#3F3D56" stroke-width="2" stroke-miterlimit="10"/>
<path d="M319.183 183.764C302.076 180.997 286.193 184.25 271.535 193.523L267.561 173.981C282.14 166.094 298.715 162.7 315.209 164.222L319.183 183.764Z" stroke="#3F3D56" stroke-width="2" stroke-miterlimit="10"/>
<path d="M292.708 180.017C298.098 178.913 301.995 175.697 301.413 172.833C300.83 169.97 295.989 168.544 290.599 169.648C285.209 170.751 281.312 173.968 281.894 176.831C282.477 179.695 287.318 181.121 292.708 180.017Z" stroke="#3F3D56" stroke-width="2" stroke-miterlimit="10"/>
<path d="M296.548 211.426C296.751 208.51 292.466 205.836 286.978 205.453C281.49 205.07 276.878 207.123 276.676 210.038C276.473 212.953 280.758 215.628 286.246 216.011C291.734 216.394 296.346 214.341 296.548 211.426Z" fill="#FB405C"/>
<path d="M323.384 230.981C301.567 220.925 279.162 219.36 256.167 226.287L258.079 198.72C280.456 193.614 303.838 195.246 325.296 203.414L323.384 230.981Z" stroke="#3F3D56" stroke-width="2" stroke-miterlimit="10"/>
<path d="M314.427 224.627C298.681 217.369 282.51 216.24 265.914 221.239L267.294 201.343C283.445 197.657 300.32 198.836 315.807 204.731L314.427 224.627Z" stroke="#3F3D56" stroke-width="2" stroke-miterlimit="10"/>
<path d="M300.218 209.324C300.421 206.409 296.136 203.735 290.648 203.352C285.16 202.969 280.548 205.021 280.346 207.937C280.143 210.852 284.428 213.526 289.916 213.909C295.404 214.293 300.016 212.24 300.218 209.324Z" stroke="#3F3D56" stroke-width="2" stroke-miterlimit="10"/>
<path d="M243.107 162.876C243.107 162.876 200.045 156.964 169.293 175.049" stroke="#3F3D56" stroke-width="2" stroke-miterlimit="10"/>
</svg>
