<svg width="13" height="12" viewBox="0 0 13 12" fill="none" xmlns="http://www.w3.org/2000/svg">
<path d="M1.52248 0C0.601896 0 0 0.604502 0 1.39904C0 2.17602 0.583966 2.79776 1.48716 2.79776H1.50463C2.44322 2.79776 3.02734 2.17602 3.02734 1.39904C3.00979 0.604502 2.44322 0 1.52248 0Z" fill="#04172A"/>
<path d="M0.15918 3.90332H2.85043V12.0001H0.15918V3.90332Z" fill="#04172A"/>
<path d="M9.45605 3.71338C8.00422 3.71338 7.03069 5.07763 7.03069 5.07763V3.90341H4.33936V12.0002H7.03053V7.47862C7.03053 7.23656 7.04808 6.99488 7.11919 6.82178C7.31374 6.33843 7.75649 5.83768 8.49999 5.83768C9.47383 5.83768 9.86332 6.58018 9.86332 7.66865V12.0002H12.5543V7.35763C12.5543 4.87066 11.2266 3.71338 9.45605 3.71338Z" fill="#04172A"/>
</svg>
