<svg width="32" height="33" viewBox="0 0 32 33" fill="none" xmlns="http://www.w3.org/2000/svg">
<path d="M30.2483 13.5766H30.2501H18.5001V1.88237C18.5001 0.919941 17.7185 0.115234 16.7533 0.115234H15.2498C14.2849 0.115234 13.4999 0.919941 13.4999 1.88237V13.5766H1.75013C0.785437 13.5766 0 14.3548 0 15.3175V16.8252C0 17.7871 0.785177 18.562 1.75013 18.562H13.5002V30.2985C13.5002 31.2604 14.2849 32.0231 15.2501 32.0231H16.7536C17.7188 32.0231 18.5003 31.2601 18.5003 30.2985V18.562H30.2483C31.2135 18.562 32.0003 17.7869 32.0003 16.8252V15.3175C32.0003 14.3548 31.2135 13.5766 30.2483 13.5766Z" fill="#FB3F5C"/>
</svg>
