<svg width="25" height="25" viewBox="0 0 25 25" fill="none" xmlns="http://www.w3.org/2000/svg">
<g clip-path="url(#clip0)">
<path d="M20.4499 4.95475C20.4519 5.2465 20.4156 5.50856 20.3482 5.74699V5.74747C20.2351 6.15343 20.0323 6.48844 19.7798 6.77662C19.6033 6.97882 19.4016 7.15739 19.1888 7.32091C18.9046 7.54074 18.5998 7.73287 18.3065 7.91852C18.306 7.91901 18.305 7.91954 18.3045 7.91954C18.1782 7.99952 18.0525 8.07902 17.9292 8.15949C17.6873 8.31691 17.4524 8.47941 17.2326 8.65997C16.5736 9.20021 16.0499 9.90143 15.8759 11.1157C15.8256 11.4663 15.5429 11.7263 15.2059 11.7616C15.1445 11.7681 15.0822 11.7671 15.0183 11.7581C14.6043 11.6987 14.3166 11.3149 14.3759 10.9004C14.6611 8.91447 15.712 7.86769 16.7145 7.15343C16.9288 7.0005 17.141 6.8632 17.3427 6.73493C17.395 6.70172 17.4463 6.66954 17.4972 6.63732C17.6903 6.51559 17.8634 6.40494 18.0168 6.29977C18.2618 6.13278 18.4569 5.98087 18.6028 5.82189C18.7381 5.6755 18.8312 5.52409 18.8835 5.34904V5.34855C18.9187 5.23234 18.9353 5.10661 18.9343 4.96525C18.9332 4.82589 18.97 4.69513 19.0354 4.58244C19.1652 4.35656 19.4077 4.20416 19.6868 4.20216C20.1053 4.19972 20.4468 4.53624 20.4499 4.95475Z" fill="#E490D0"/>
<path d="M18.1147 10.6715L17.1253 11.661L15.6203 13.1655L12.9306 10.4759L11.915 9.4603C12.4226 8.95273 12.9301 8.44522 13.4372 7.93765L14.409 6.96582C15.0624 7.17808 15.663 7.50103 16.1892 7.9145C17.079 8.61318 17.7561 9.56738 18.1147 10.6715Z" fill="#4D5961"/>
<path d="M16.189 7.91445L13.7851 10.3184L12.9304 10.476L11.9146 9.46016C12.746 8.62871 13.5774 7.79727 14.4089 6.96582C15.062 7.17798 15.6626 7.50127 16.189 7.91445Z" fill="#04172A"/>
<path d="M17.1253 11.6608L15.6203 13.1654L12.9306 10.4757L11.915 9.46016C12.4226 8.95259 12.9301 8.44507 13.4372 7.9375C14.1907 8.33843 14.8979 8.85601 15.5327 9.49082C16.1887 10.1467 16.7194 10.8796 17.1253 11.6608Z" fill="#04172A"/>
<path d="M8.84394 24.9994C13.7154 24.9994 17.6645 21.0503 17.6645 16.1789C17.6645 11.3075 13.7154 7.3584 8.84394 7.3584C3.97251 7.3584 0.0234375 11.3075 0.0234375 16.1789C0.0234375 21.0503 3.97251 24.9994 8.84394 24.9994Z" fill="#040F2C"/>
<path d="M8.01827 22.4169C9.04371 23.4423 10.2585 24.1621 11.5496 24.5769C8.50167 25.5563 5.02638 24.8365 2.6068 22.4169C-0.837683 18.9719 -0.837683 13.3872 2.6068 9.94273C5.02638 7.52315 8.50167 6.80333 11.5496 7.78277C10.2585 8.19747 9.04366 8.91778 8.01827 9.94273C4.57379 13.3872 4.57379 18.9719 8.01827 22.4169Z" fill="#04172A"/>
<path d="M16.1348 4.75713L16.1082 4.85664C16.0141 5.20762 15.6644 5.42583 15.3078 5.35606L14.2109 5.14136C13.8181 5.06446 13.5725 4.6709 13.6761 4.28418L13.7424 4.03692C13.846 3.6502 14.2555 3.43218 14.6341 3.56202L15.6914 3.92452C16.0351 4.04229 16.2289 4.40616 16.1348 4.75713Z" fill="#FB3F5C"/>
<path d="M22.523 6.46841L22.4963 6.56792C22.4023 6.91889 22.5961 7.28276 22.9398 7.40058L23.9971 7.76308C24.3758 7.89292 24.7852 7.67485 24.8888 7.28818L24.9551 7.04092C25.0587 6.6542 24.8131 6.26064 24.4203 6.18374L23.3234 5.96904C22.9668 5.89922 22.617 6.11743 22.523 6.46841Z" fill="#FB3F5C"/>
<path d="M18.5081 2.45585L18.4085 2.48251C18.0576 2.57655 17.6937 2.38275 17.5759 2.03905L17.2134 0.981773C17.0835 0.603062 17.3016 0.193639 17.6883 0.0900253L17.9355 0.0237656C18.3223 -0.0798477 18.7158 0.165709 18.7927 0.55858L19.0074 1.65545C19.0773 2.01205 18.859 2.3618 18.5081 2.45585Z" fill="#FB3F5C"/>
<path d="M20.2213 8.84302L20.1218 8.86968C19.7708 8.96372 19.5526 9.31348 19.6223 9.67007L19.837 10.7669C19.9139 11.1598 20.3075 11.4054 20.6942 11.3018L20.9415 11.2355C21.3282 11.1319 21.5462 10.7224 21.4164 10.3438L21.0539 9.28648C20.9361 8.94278 20.5722 8.74898 20.2213 8.84302Z" fill="#FB3F5C"/>
<path d="M21.6893 3.36091L21.6165 3.28806C21.3596 3.03113 21.3455 2.61911 21.5842 2.34519L22.3186 1.50266C22.5816 1.20085 23.0453 1.18498 23.3284 1.46809L23.5094 1.6491C23.7925 1.9322 23.7766 2.39582 23.4748 2.65886L22.6323 3.39324C22.3583 3.63196 21.9463 3.61785 21.6893 3.36091Z" fill="#FB3F5C"/>
<path d="M20.3481 5.74653V5.74702C20.2349 6.15298 20.0322 6.48799 19.7797 6.77617V6.49551C19.7797 5.8104 18.9019 5.35767 18.8929 5.35317L18.8833 5.34863V5.34814C18.9185 5.23193 18.9351 5.1062 18.9341 4.96484C18.9331 4.82549 18.9698 4.69473 19.0352 4.58203L19.2273 4.6771C19.2676 4.69673 19.997 5.06494 20.3481 5.74653Z" fill="#DF73C1"/>
<path d="M19.1872 7.32026C18.903 7.54009 18.5981 7.73223 18.3049 7.91787C18.3044 7.91836 18.3034 7.9189 18.3029 7.9189L18.3884 7.60654C18.5911 6.86963 18.0257 6.30928 18.0197 6.30371L18.0151 6.29917C18.2601 6.13218 18.4553 5.98027 18.6012 5.82129C18.7611 5.99932 19.2013 6.56021 19.1872 7.32026Z" fill="#DF73C1"/>
<path d="M17.9292 8.15894C17.6872 8.31636 17.4523 8.47886 17.2325 8.65942L17.2139 8.47432C17.1525 7.86768 16.7994 7.28516 16.7144 7.15288C16.9287 6.99995 17.1409 6.86265 17.3426 6.73438C17.4407 6.88579 17.7994 7.47178 17.9292 8.15894Z" fill="#DF73C1"/>
<path d="M11.9717 18.1096C11.8269 19.1463 10.9622 20.1966 9.54214 20.4813V20.8671C9.54214 21.2841 9.2041 21.6221 8.78662 21.6221C8.36963 21.6221 8.0316 21.2841 8.0316 20.8671V20.5396C7.45464 20.5019 6.97076 20.3877 6.33746 20.0759C6.25747 20.0361 6.17447 19.9939 6.08897 19.9476C5.72124 19.7499 5.58394 19.2916 5.78213 18.9245C5.79976 18.8923 5.81885 18.8616 5.83999 18.8329C6.05982 18.5356 6.47027 18.4375 6.80528 18.6176C7.51753 19.0014 7.84854 19.0512 8.78262 19.0462C9.52657 19.0422 10.3722 18.6393 10.4758 17.9003C10.5412 17.432 10.2031 17.0537 9.54771 16.8631C8.18653 16.4667 7.40235 16.1568 6.83995 15.7937C6.17647 15.3651 5.84751 14.6 5.9813 13.7972C6.13672 12.8625 6.88018 12.099 7.87466 11.8525C7.92749 11.8394 7.97979 11.8273 8.0316 11.8163V11.4928C8.0316 11.0753 8.36963 10.7373 8.78662 10.7373C9.20415 10.7373 9.54214 11.0753 9.54214 11.4928V11.7695C10.355 11.8962 10.8862 12.2378 11.0271 12.3369C11.3676 12.5778 11.4486 13.0491 11.2082 13.3897C10.9672 13.7302 10.4959 13.8117 10.1553 13.5708C10.1241 13.5487 9.37969 13.0356 8.23882 13.3188C7.74185 13.442 7.51646 13.775 7.47119 14.0457C7.45108 14.1659 7.44908 14.3887 7.65982 14.5245C8.19351 14.8696 9.1271 15.1668 9.97017 15.4124C11.6573 15.9034 12.103 17.1725 11.9717 18.1096Z" fill="#FB3F5C"/>
<path d="M6.33745 20.075C6.25747 20.0353 6.17447 19.993 6.08897 19.9467C5.72124 19.749 5.58394 19.2908 5.78213 18.9236C5.79976 18.8914 5.81885 18.8607 5.83999 18.832C5.97329 19.2556 6.13877 19.6711 6.33745 20.075Z" fill="#FB3F5C"/>
</g>
<defs>
<clipPath id="clip0">
<rect width="25" height="25" fill="white"/>
</clipPath>
</defs>
</svg>
