<svg width="25" height="25" viewBox="0 0 25 25" fill="none" xmlns="http://www.w3.org/2000/svg">
<path d="M2.60415 4.16699H22.3958C23.834 4.16699 24.9999 5.33291 24.9999 6.77114V18.2295C24.9999 19.6677 23.834 20.8336 22.3958 20.8336H2.60415C1.16592 20.8337 0 19.6678 0 18.2295V6.77119C0 5.33291 1.16592 4.16699 2.60415 4.16699Z" fill="#4AB7FF"/>
<path d="M25 7.29199H0V11.4586H25V7.29199Z" fill="white"/>
<path d="M7.8125 15.6247H3.64585C3.3582 15.6247 3.125 15.3915 3.125 15.1039C3.125 14.8162 3.3582 14.583 3.64585 14.583H7.8125C8.10015 14.583 8.33335 14.8162 8.33335 15.1039C8.33335 15.3915 8.10015 15.6247 7.8125 15.6247Z" fill="#FAFAFA"/>
<path d="M10.9375 17.7077H3.64585C3.3582 17.7077 3.125 17.4745 3.125 17.1869C3.125 16.8992 3.3582 16.666 3.64585 16.666H10.9375C11.2251 16.666 11.4583 16.8992 11.4583 17.1869C11.4583 17.4745 11.2251 17.7077 10.9375 17.7077Z" fill="#FAFAFA"/>
</svg>
