<svg width="25" height="25" viewBox="0 0 25 25" fill="none" xmlns="http://www.w3.org/2000/svg">
<path d="M12.1094 10.5469V11.0094C11.849 11.1011 11.6294 11.282 11.4896 11.5201C11.3498 11.7582 11.2988 12.0381 11.3456 12.3102C11.3923 12.5823 11.5339 12.8291 11.7452 13.0068C11.9565 13.1846 12.2239 13.2818 12.5 13.2812C12.5773 13.2812 12.6528 13.3042 12.717 13.3471C12.7813 13.39 12.8313 13.451 12.8609 13.5224C12.8905 13.5938 12.8982 13.6723 12.8831 13.7481C12.868 13.8239 12.8308 13.8935 12.7762 13.9481C12.7216 14.0027 12.652 14.0399 12.5762 14.055C12.5004 14.0701 12.4219 14.0623 12.3505 14.0328C12.2791 14.0032 12.2181 13.9531 12.1752 13.8889C12.1323 13.8247 12.1094 13.7491 12.1094 13.6719H11.3281C11.3291 13.9134 11.4047 14.1487 11.5446 14.3456C11.6844 14.5425 11.8817 14.6914 12.1094 14.7719V15.2344H12.8906V14.7719C13.151 14.6801 13.3706 14.4992 13.5104 14.2611C13.6502 14.023 13.7012 13.7431 13.6544 13.471C13.6077 13.1989 13.4661 12.9521 13.2548 12.7744C13.0435 12.5967 12.7761 12.4995 12.5 12.5C12.4227 12.5 12.3472 12.4771 12.283 12.4342C12.2187 12.3912 12.1687 12.3302 12.1391 12.2589C12.1095 12.1875 12.1018 12.1089 12.1169 12.0332C12.132 11.9574 12.1692 11.8878 12.2238 11.8332C12.2784 11.7785 12.348 11.7413 12.4238 11.7263C12.4996 11.7112 12.5781 11.7189 12.6495 11.7485C12.7209 11.778 12.7819 11.8281 12.8248 11.8924C12.8677 11.9566 12.8906 12.0321 12.8906 12.1094H13.6719C13.6709 11.8679 13.5953 11.6326 13.4554 11.4357C13.3156 11.2388 13.1183 11.0899 12.8906 11.0094V10.5469H12.1094Z" fill="#FB3F5C"/>
<path d="M14.8438 7.8125C15.5687 7.81167 16.2637 7.52332 16.7763 7.01071C17.2889 6.49809 17.5773 5.80307 17.5781 5.07812C17.5781 4.97452 17.537 4.87517 17.4637 4.80191C17.3905 4.72866 17.2911 4.6875 17.1875 4.6875H14.8438C14.4796 4.6873 14.1192 4.76014 13.7837 4.90171C13.4482 5.04328 13.1445 5.25071 12.8906 5.51172V3.90625H14.8438C15.5687 3.90542 16.2637 3.61707 16.7763 3.10446C17.2889 2.59184 17.5773 1.89682 17.5781 1.17188C17.5781 1.06827 17.537 0.968918 17.4637 0.895661C17.3905 0.822405 17.2911 0.78125 17.1875 0.78125H14.8438C14.3712 0.781343 13.9068 0.904149 13.4959 1.13765C13.0851 1.37114 12.7419 1.70732 12.5 2.11328C12.2581 1.70732 11.9149 1.37114 11.5041 1.13765C11.0932 0.904149 10.6288 0.781343 10.1562 0.78125H7.8125C7.7089 0.78125 7.60954 0.822405 7.53629 0.895661C7.46303 0.968918 7.42188 1.06827 7.42188 1.17188C7.4227 1.89682 7.71105 2.59184 8.22367 3.10446C8.73628 3.61707 9.4313 3.90542 10.1562 3.90625H12.1094V5.51172C11.8555 5.25071 11.5518 5.04328 11.2163 4.90171C10.8808 4.76014 10.5204 4.6873 10.1562 4.6875H7.8125C7.7089 4.6875 7.60954 4.72866 7.53629 4.80191C7.46303 4.87517 7.42188 4.97452 7.42188 5.07812C7.4227 5.80307 7.71105 6.49809 8.22367 7.01071C8.73628 7.52332 9.4313 7.81167 10.1562 7.8125H12.1094V8.61328C11.0082 8.7138 9.98817 9.23497 9.26144 10.0684C8.53472 10.9018 8.15726 11.9833 8.20758 13.0879C8.25789 14.1925 8.7321 15.2352 9.53158 15.9991C10.3311 16.763 11.3942 17.1892 12.5 17.1892C13.6058 17.1892 14.6689 16.763 15.4684 15.9991C16.2679 15.2352 16.7421 14.1925 16.7924 13.0879C16.8427 11.9833 16.4653 10.9018 15.7386 10.0684C15.0118 9.23497 13.9918 8.7138 12.8906 8.61328V7.8125H14.8438ZM14.8438 5.46875H16.7578C16.6672 5.9096 16.4273 6.30572 16.0786 6.59034C15.73 6.87497 15.2938 7.03068 14.8438 7.03125H12.9297C13.0203 6.5904 13.2602 6.19428 13.6089 5.90966C13.9575 5.62504 14.3937 5.46932 14.8438 5.46875ZM14.8438 1.5625H16.7578C16.6672 2.00335 16.4273 2.39947 16.0786 2.68409C15.73 2.96871 15.2938 3.12443 14.8438 3.125H12.9297C13.0203 2.68415 13.2602 2.28803 13.6089 2.00341C13.9575 1.71879 14.3937 1.56307 14.8438 1.5625ZM10.1562 3.125C9.70617 3.12443 9.27005 2.96871 8.92139 2.68409C8.57273 2.39947 8.33285 2.00335 8.24219 1.5625H10.1562C10.6063 1.56307 11.0425 1.71879 11.3911 2.00341C11.7398 2.28803 11.9796 2.68415 12.0703 3.125H10.1562ZM10.1562 7.03125C9.70617 7.03068 9.27005 6.87497 8.92139 6.59034C8.57273 6.30572 8.33285 5.9096 8.24219 5.46875H10.1562C10.6063 5.46932 11.0425 5.62504 11.3911 5.90966C11.7398 6.19428 11.9796 6.5904 12.0703 7.03125H10.1562ZM16.0156 12.8906C16.0156 13.5859 15.8094 14.2657 15.4231 14.8438C15.0368 15.4219 14.4878 15.8725 13.8454 16.1386C13.203 16.4047 12.4961 16.4743 11.8141 16.3387C11.1322 16.203 10.5057 15.8682 10.0141 15.3765C9.52241 14.8849 9.18758 14.2585 9.05193 13.5765C8.91628 12.8945 8.9859 12.1876 9.25199 11.5453C9.51807 10.9029 9.96868 10.3538 10.5468 9.96749C11.125 9.58119 11.8047 9.375 12.5 9.375C13.432 9.37645 14.3253 9.74731 14.9843 10.4063C15.6433 11.0653 16.0142 11.9587 16.0156 12.8906Z" fill="#FB3F5C"/>
<path d="M24.1602 16.4219C23.9003 15.9742 23.4741 15.6474 22.9743 15.5128C22.4745 15.3781 21.9417 15.4466 21.4922 15.7031L16.6016 18.5273C16.2363 18.1697 15.7456 17.9692 15.2344 17.9687H10.707L9.55859 16.8164C9.3042 16.562 9.00211 16.3604 8.66964 16.223C8.33716 16.0855 7.98084 16.0151 7.62109 16.0156H3.90625V15.2344C3.90625 15.1308 3.86509 15.0314 3.79184 14.9582C3.71858 14.8849 3.61923 14.8438 3.51562 14.8438H1.17188C1.06827 14.8438 0.968918 14.8849 0.895661 14.9582C0.822405 15.0314 0.78125 15.1308 0.78125 15.2344V23.8281C0.78125 23.9317 0.822405 24.0311 0.895661 24.1043C0.968918 24.1776 1.06827 24.2187 1.17188 24.2187H3.51562C3.61923 24.2187 3.71858 24.1776 3.79184 24.1043C3.86509 24.0311 3.90625 23.9317 3.90625 23.8281V22.7852L8.66797 24.1445C8.84226 24.193 9.02223 24.2179 9.20312 24.2187H14.0352C14.378 24.2191 14.7149 24.1288 15.0117 23.957L23.4453 19.0898C23.8939 18.8308 24.2212 18.4042 24.3553 17.9039C24.4893 17.4036 24.4191 16.8705 24.1602 16.4219ZM3.125 23.4375H1.5625V15.625H3.125V23.4375ZM23.6016 17.6992C23.5618 17.8479 23.4931 17.9873 23.3992 18.1094C23.3053 18.2314 23.1882 18.3336 23.0547 18.4102L14.6211 23.2812C14.4424 23.3828 14.2406 23.4366 14.0352 23.4375H9.20312C9.09462 23.4378 8.98667 23.422 8.88281 23.3906L3.90625 21.9727V16.7969H7.62109C7.8782 16.7957 8.13295 16.8459 8.3704 16.9445C8.60785 17.0432 8.82323 17.1882 9.00391 17.3711L10.2695 18.6367C10.344 18.7087 10.4433 18.7492 10.5469 18.75H15.2344C15.3865 18.7492 15.5373 18.7785 15.6781 18.8361C15.8188 18.8938 15.9468 18.9787 16.0547 19.0859C16.1049 19.1377 16.1519 19.1925 16.1953 19.25C16.3318 19.4475 16.4054 19.6818 16.4062 19.9219C16.4053 20.2324 16.2816 20.5299 16.062 20.7495C15.8424 20.9691 15.5449 21.0928 15.2344 21.0937H10.5469V21.875H15.2344C15.5556 21.8769 15.8724 21.7991 16.1562 21.6485C16.4399 21.4979 16.6819 21.2793 16.8604 21.0121C17.0389 20.745 17.1483 20.4378 17.1788 20.1179C17.2093 19.7981 17.1599 19.4757 17.0352 19.1797L21.8828 16.3828C22.0834 16.2669 22.3139 16.213 22.5451 16.228C22.7763 16.243 22.9978 16.3262 23.1818 16.4671C23.3657 16.6079 23.5038 16.8002 23.5785 17.0195C23.6532 17.2388 23.6612 17.4753 23.6016 17.6992Z" fill="#FB3F5C"/>
</svg>
