<svg width="25" height="25" viewBox="0 0 25 25" fill="none" xmlns="http://www.w3.org/2000/svg">
<g clip-path="url(#clip0)">
<path d="M14.0951 7.33301C13.8837 7.33301 13.6724 7.52515 13.6724 8.1689C13.6724 8.8127 13.8837 9.00483 14.0951 9.00483C14.3065 9.00483 14.5179 8.81265 14.5179 8.1689C14.5179 7.52515 14.3065 7.33301 14.0951 7.33301Z" fill="#713BDB"/>
<path d="M9.58721 4.99897C9.58721 4.35522 9.37583 4.16309 9.16445 4.16309C8.95308 4.16309 8.7417 4.35527 8.7417 4.99897C8.7417 5.64277 8.95308 5.83491 9.16445 5.83491C9.37583 5.83491 9.58721 5.64277 9.58721 4.99897Z" fill="#713BDB"/>
<path d="M7.47212 11.9044H15.665L18.0464 9.22534C18.4072 8.81948 18.8533 8.50781 19.3453 8.30542C19.3568 8.13223 19.3633 7.95757 19.3633 7.78149C19.3633 3.49077 15.8726 0 11.5818 0C7.29106 0 3.80029 3.49077 3.80029 7.78149C3.80029 9.47554 4.34478 11.0446 5.26743 12.3236C5.95977 12.0487 6.70478 11.9044 7.47212 11.9044ZM7.37895 4.99858C7.37895 3.80718 8.14761 3.125 9.16611 3.125C10.1846 3.125 10.9533 3.80718 10.9533 4.99858C10.9533 6.19966 10.1846 6.87222 9.16611 6.87222C8.14761 6.87222 7.37895 6.19966 7.37895 4.99858ZM8.52236 9.94688L13.1151 3.22109H14.7389L10.1461 9.94688H8.52236ZM14.0952 10.043C13.0767 10.043 12.308 9.37041 12.308 8.16934C12.308 6.97793 13.0767 6.29575 14.0952 6.29575C15.1137 6.29575 15.8823 6.97793 15.8823 8.16934C15.8823 9.37036 15.1136 10.043 14.0952 10.043Z" fill="#713BDB"/>
<path d="M22.0144 9.9832C21.6275 9.66084 21.1571 9.50293 20.6888 9.50293C20.1167 9.50293 19.5479 9.73867 19.1393 10.1984L16.591 13.0652C16.8826 13.4908 17.0533 14.0041 17.0533 14.5565C17.0533 16.0226 15.8515 17.2153 14.3742 17.2153H10.4808V15.7505H14.3742C15.0437 15.7505 15.5884 15.2148 15.5884 14.5565C15.5884 13.9405 15.1115 13.432 14.5017 13.3691H7.47017C4.98384 13.3691 2.96826 15.3847 2.96826 17.871V20.6216H10.6122V19.5967H16.8398L22.296 12.8814C23.0113 12.0012 22.8857 10.7094 22.0144 9.9832Z" fill="#713BDB"/>
<path d="M11.3466 22.0869H2.23779V25.0003H11.3466V22.0869Z" fill="#713BDB"/>
</g>
<defs>
<clipPath id="clip0">
<rect width="25" height="25" fill="white"/>
</clipPath>
</defs>
</svg>
