<svg width="22" height="29" viewBox="0 0 22 29" fill="none" xmlns="http://www.w3.org/2000/svg">
<path d="M17.5004 26.7172H14.9191L14.3425 23.7441C14.2708 23.3739 14.0128 23.1143 13.7169 23.1143C11.9196 23.1143 9.83625 23.1143 8.21359 23.1143C7.91766 23.1143 7.65969 23.3739 7.58794 23.7441L7.01138 26.7172H4.43007C4.07391 26.7172 3.78516 27.0895 3.78516 27.5486C3.78516 28.0078 4.07391 28.3801 4.43007 28.3801H17.5004C17.8566 28.3801 18.1453 28.0078 18.1453 27.5486C18.1453 27.0895 17.8566 26.7172 17.5004 26.7172Z" fill="#FF8B58"/>
<path d="M12.9829 13.5771C11.6614 14.1814 10.2266 14.165 8.94141 13.5775V21.4518H12.9829V13.5771Z" fill="#FF8B58"/>
<path d="M21.2822 12.4718H19.5194V2.21721C19.5194 1.63281 19.0625 1.22955 18.6395 1.4429L15.1404 3.20813C14.326 1.29684 12.7591 0 10.9635 0C7.8759 0 5.59755 3.781 6.32488 7.65546L2.81758 9.42485C2.57037 9.54957 2.40768 9.85687 2.40768 10.1992V15.5759H0.644914C0.288749 15.5759 0 15.9481 0 16.4073V19.9549C0 20.414 0.288749 20.7863 0.644914 20.7863H5.46027C5.81643 20.7863 6.10518 20.414 6.10518 19.9549V16.4073C6.10518 15.9481 5.81643 15.5759 5.46027 15.5759H3.6975V10.7666L6.79619 9.2034C8.11654 12.2448 11.1067 13.2595 13.4009 11.4953C15.1964 10.1142 16.0926 7.4063 15.6045 4.75979L18.2296 3.4354V12.4718H16.4668C16.1106 12.4718 15.8219 12.8441 15.8219 13.3032V16.8508C15.8219 17.31 16.1106 17.6822 16.4668 17.6822H21.2822C21.6383 17.6822 21.9271 17.31 21.9271 16.8508V13.3032C21.9271 12.8441 21.6383 12.4718 21.2822 12.4718ZM10.9635 8.8134C9.84929 8.8134 8.9428 7.64471 8.9428 6.20818C8.9428 4.77165 9.84929 3.60296 10.9635 3.60296C12.0778 3.60296 12.9843 4.77165 12.9843 6.20818C12.9843 7.64471 12.0778 8.8134 10.9635 8.8134Z" fill="#FF8B58"/>
<path d="M10.9653 7.15021C11.369 7.15021 11.6962 6.72833 11.6962 6.20792C11.6962 5.6875 11.369 5.26562 10.9653 5.26562C10.5616 5.26562 10.2344 5.6875 10.2344 6.20792C10.2344 6.72833 10.5616 7.15021 10.9653 7.15021Z" fill="#FF8B58"/>
</svg>
