<svg width="25" height="25" viewBox="0 0 25 25" fill="none" xmlns="http://www.w3.org/2000/svg">
<path d="M25 0H5.64516V13.0274C4.74556 13.2069 3.82661 13.3065 2.89637 13.3065H2.82258C1.26613 13.3065 0 14.5726 0 16.129C0 17.5327 1.03105 18.6968 2.375 18.9125L2.82258 19.8577V23.3871C2.82258 24.2766 3.54597 25 4.43548 25C5.325 25 6.04839 24.2766 6.04839 23.3871V19.3121C7.68427 19.6895 9.24556 20.3581 10.6633 21.3032L10.7649 21.371H12.9032V19.3548H25V0ZM11.2903 10.8871H10.7649L10.6633 10.9548C10.3423 11.169 10.0121 11.3653 9.67742 11.5512V8.06452H11.2903V10.8871ZM10.4839 12.0105V20.2476C8.51371 19.0698 6.31573 18.3645 4.03226 18.1903V14.0677C6.31573 13.8935 8.51371 13.1883 10.4839 12.0105ZM0.806452 16.129C0.806452 15.0173 1.71089 14.1129 2.82258 14.1129H2.89637C3.00685 14.1129 3.11573 14.1036 3.22581 14.1008V18.1573C3.11573 18.1544 3.00685 18.1452 2.89637 18.1452H2.82258C1.71089 18.1452 0.806452 17.2407 0.806452 16.129ZM5.24194 23.3871C5.24194 23.8319 4.88024 24.1935 4.43548 24.1935C3.99073 24.1935 3.62903 23.8319 3.62903 23.3871V19.6762L3.29274 18.9661C3.9496 18.9847 4.6004 19.0472 5.24194 19.156V23.3871ZM12.0968 20.5645H11.2903V11.6935H12.0968V20.5645ZM16.129 18.5484H14.5161V6.45161H16.129V18.5484ZM20.9677 18.5484H19.3548V9.67742H20.9677V18.5484ZM24.1935 18.5484H21.7742V8.87097H18.5484V18.5484H16.9355V5.64516H13.7097V18.5484H12.9032V10.8871H12.0968V7.25806H8.87097V11.969C8.09234 12.3367 7.28145 12.6222 6.45161 12.8399V0.806452H24.1935V18.5484Z" fill="#D9A30E"/>
</svg>
