<svg width="78" height="40" viewBox="0 0 78 40" fill="none" xmlns="http://www.w3.org/2000/svg">
<path opacity="0.997" fill-rule="evenodd" clip-rule="evenodd" d="M28.7713 0C28.3831 4.32261e-05 28.0107 0.154566 27.7362 0.429582C27.4617 0.704598 27.3074 1.07759 27.3074 1.46652V9.03009C27.3074 9.41903 27.4616 9.79204 27.7362 10.0671C28.0107 10.3421 28.3831 10.4966 28.7713 10.4966C29.1596 10.4966 29.532 10.3421 29.8065 10.0671C30.0811 9.79204 30.2353 9.41903 30.2353 9.03009V2.93304H74.2327V28.2442H60.0999C59.7117 28.2442 59.3393 28.3987 59.0648 28.6737C58.7902 28.9487 58.636 29.3217 58.636 29.7107C58.636 30.0996 58.7902 30.4726 59.0648 30.7477C59.3393 31.0227 59.7117 31.1772 60.0999 31.1772H75.6966C76.0849 31.1772 76.4572 31.0226 76.7318 30.7476C77.0063 30.4726 77.1606 30.0996 77.1606 29.7107V1.46652C77.1606 1.07759 77.0063 0.704598 76.7318 0.429582C76.4572 0.154566 76.0849 4.36316e-05 75.6966 0H28.7713Z" fill="#FB3F5C"/>
<path d="M0 11.1335V13.1983H1.57397V20.8378H3.95366V13.1983H5.86492V11.1335H3.95366V10.7393C3.95366 10.3076 4.06609 9.95097 4.30968 9.68818C4.53453 9.42539 4.89055 9.294 5.34026 9.294H5.86492V7.22925H4.85308C3.8225 7.22925 3.01678 7.52957 2.43591 8.13023C1.85504 8.73088 1.57397 9.53802 1.57397 10.5704V11.1335H0Z" fill="#04172A"/>
<path d="M13.6313 16.8595C13.6313 17.5165 13.444 18.0421 13.0879 18.4175C12.7319 18.7929 12.2822 18.9806 11.7201 18.9806C11.1205 18.9806 10.652 18.7929 10.3335 18.3987C10.0149 18.0045 9.86505 17.4977 9.86505 16.8595V11.1345H7.48535V17.1411C7.48535 18.3236 7.78516 19.2809 8.4035 20.013C9.00311 20.7638 9.88378 21.1204 11.008 21.1204C11.5702 21.1204 12.0948 21.0078 12.5633 20.7638C13.013 20.5198 13.4065 20.1631 13.725 19.7126V20.8389H16.011V11.1345H13.6313V16.8595Z" fill="#04172A"/>
<path d="M20.8824 15.1326C20.8824 14.4756 21.0698 13.95 21.4633 13.5746C21.838 13.1992 22.3252 12.9927 22.8873 12.9927C23.5057 12.9927 23.9741 13.1992 24.2739 13.5934C24.5737 13.9876 24.7424 14.5131 24.7424 15.1701V20.8388H27.1221V14.8135C27.1221 13.6309 26.8035 12.6736 26.2039 11.9416C25.5856 11.2283 24.7611 10.8529 23.7118 10.8529C22.4564 10.8529 21.482 11.3409 20.7887 12.2795V11.1345H18.5027V20.8388H20.8824V15.1326Z" fill="#04172A"/>
<path d="M33.2472 21.1201C33.9031 21.1201 34.4839 20.9887 34.9899 20.7072C35.477 20.4444 35.8893 20.0502 36.2265 19.5622V20.8386H38.5126V7.22998H36.1516V12.3168C35.8143 11.8663 35.4021 11.5096 34.9149 11.2469C34.4277 10.9841 33.8656 10.8527 33.2472 10.8527C32.404 10.8527 31.6545 11.0779 31.0175 11.5096C30.3804 11.9414 29.8744 12.542 29.4997 13.3116C29.1249 14.0812 28.9563 14.9634 28.9563 15.977C28.9563 16.9906 29.1249 17.8728 29.4997 18.6424C29.8744 19.4308 30.3804 20.0314 31.0175 20.4632C31.6545 20.9136 32.404 21.1201 33.2472 21.1201ZM33.8094 18.9991C33.0973 18.9991 32.4977 18.7363 32.048 18.1732C31.5983 17.6288 31.3735 16.8968 31.3735 15.977C31.3735 15.0573 31.5983 14.3252 32.048 13.7809C32.4977 13.2553 33.0973 12.9737 33.8094 12.9737C34.5214 12.9737 35.121 13.2553 35.5707 13.7996C36.0204 14.344 36.264 15.076 36.264 15.977C36.264 16.8968 36.0204 17.6288 35.5707 18.1732C35.121 18.7363 34.5214 18.9991 33.8094 18.9991Z" fill="#04172A"/>
<path d="M44.5718 20.8698H46.9515V15.0697C46.9515 14.4315 47.1014 13.9435 47.4387 13.5681C47.7572 13.2114 48.1694 13.0237 48.6753 13.0237C49.1813 13.0237 49.5748 13.2114 49.8558 13.5681C50.1182 13.9435 50.2681 14.4315 50.2681 15.0697V20.8698H52.6478V15.0697C52.6478 14.4315 52.7977 13.9435 53.1349 13.5681C53.4722 13.2114 53.8844 13.0237 54.3904 13.0237C54.8963 13.0237 55.2898 13.2114 55.5708 13.5681C55.8332 13.9435 55.9831 14.4315 55.9831 15.0697V20.8698H58.3628V14.7694C58.3628 13.5681 58.063 12.6296 57.4821 11.9351C56.8825 11.2405 56.0955 10.8839 55.1211 10.8839C54.5215 10.8839 53.9407 11.0341 53.416 11.2969C52.8913 11.5784 52.4416 11.9726 52.1044 12.4794C51.8233 11.9914 51.4673 11.5972 51.0176 11.3156C50.5679 11.0341 50.0432 10.8839 49.4811 10.8839C48.9189 10.8839 48.4318 11.0153 47.9821 11.2405C47.5323 11.4658 47.1576 11.8037 46.8578 12.2166V11.1655H44.5718V20.8698Z" fill="#FB3F5C"/>
<path d="M61.4877 24.7169H64.036L69.32 11.1647H66.753L64.392 18.091L61.9936 11.1647H59.2766L63.0804 20.869L61.4877 24.7169Z" fill="#FB3F5C"/>
<path d="M1.54858 36.1519H3.92828V22.5433H1.54858V36.1519Z" fill="#04172A"/>
<path d="M9.11413 36.4341C9.67626 36.4341 10.2197 36.3214 10.7443 36.0774C11.269 35.8522 11.6999 35.4768 12.0185 34.9512V36.1525H14.2108V30.0709C14.2108 28.7382 13.836 27.7621 13.124 27.1239C12.3932 26.4857 11.4001 26.1666 10.1447 26.1666C9.0017 26.1666 8.08355 26.4482 7.37152 26.9925C6.65948 27.5556 6.20978 28.2314 6.05987 29.0573H8.34588C8.42083 28.8133 8.60821 28.588 8.90801 28.4003C9.20782 28.2126 9.58257 28.1188 10.0698 28.1188C10.6131 28.1188 11.0441 28.2689 11.3814 28.5317C11.6999 28.7945 11.8686 29.2262 11.8686 29.8269V30.1835H9.90111C8.58947 30.1835 7.57763 30.4651 6.8656 31.0282C6.13483 31.5913 5.77881 32.3797 5.77881 33.3745C5.77881 34.313 6.07861 35.0451 6.67822 35.6082C7.27783 36.1713 8.10229 36.4341 9.11413 36.4341ZM9.71374 34.5195C9.22656 34.5195 8.8518 34.4256 8.552 34.2004C8.25219 33.9751 8.10229 33.656 8.10229 33.2243C8.10229 32.8114 8.25219 32.4735 8.58947 32.2483C8.92675 32.023 9.39519 31.8916 10.0135 31.8916H11.8686V32.511C11.8686 32.9615 11.7562 33.3182 11.5313 33.6185C11.3064 33.9188 11.0441 34.1441 10.7068 34.2942C10.3696 34.4444 10.051 34.5195 9.71374 34.5195Z" fill="#04172A"/>
<path d="M16.6262 40.0005H18.9872V34.97C19.3245 35.4392 19.7367 35.7959 20.2239 36.0587C20.7111 36.3215 21.2544 36.4341 21.8915 36.4341C22.716 36.4341 23.4655 36.2276 24.1026 35.7959C24.7397 35.3642 25.2456 34.7635 25.6203 33.9751C25.9951 33.2055 26.1825 32.3233 26.1825 31.3097C26.1825 30.2961 25.9951 29.4139 25.6203 28.6443C25.2456 27.8747 24.7397 27.2741 24.1026 26.8236C23.4655 26.3919 22.716 26.1666 21.8915 26.1666C21.217 26.1666 20.6361 26.3168 20.1489 26.5796C19.643 26.8611 19.2308 27.2365 18.9122 27.7246V26.4482H16.6262V40.0005ZM21.3294 34.313C20.5986 34.313 19.999 34.0502 19.5493 33.5059C19.0996 32.9615 18.8747 32.2295 18.8747 31.3097C18.8747 30.4087 19.0996 29.6767 19.5493 29.1136C19.999 28.5692 20.5986 28.2877 21.3294 28.2877C22.0414 28.2877 22.6223 28.5692 23.072 29.1136C23.5217 29.6579 23.7653 30.39 23.7653 31.3097C23.7653 32.2295 23.5217 32.9615 23.072 33.5059C22.6223 34.0502 22.0414 34.313 21.3294 34.313Z" fill="#04172A"/>
<path d="M31.7913 36.2277H33.028V34.163H32.3347C31.9412 34.163 31.6414 34.0504 31.4353 33.8251C31.2104 33.5999 31.1168 33.2808 31.1168 32.8303V28.5131H33.028V26.4483H31.1168V23.1072C30.3485 23.3324 29.5615 23.4638 28.7371 23.5014V26.4483H27.1631V28.5131H28.7371V33.0931C28.7371 34.1254 28.9994 34.9138 29.524 35.4394C30.0487 35.9649 30.8169 36.2277 31.7913 36.2277Z" fill="#04172A"/>
<path d="M39.179 36.4341C40.1159 36.4341 40.9591 36.2276 41.6899 35.7771C42.4206 35.3454 43.0015 34.7447 43.4137 33.9564C43.826 33.1868 44.0321 32.3046 44.0321 31.291C44.0321 30.2774 43.826 29.3951 43.4137 28.6256C43.0015 27.856 42.4206 27.2553 41.6899 26.8236C40.9591 26.3919 40.1159 26.1666 39.179 26.1666C38.2234 26.1666 37.3802 26.3919 36.6494 26.8236C35.9186 27.2553 35.3565 27.856 34.9443 28.6256C34.532 29.3951 34.3259 30.2774 34.3259 31.291C34.3259 32.3046 34.532 33.1868 34.9443 33.9564C35.3565 34.7447 35.9186 35.3454 36.6494 35.7771C37.3802 36.2276 38.2234 36.4341 39.179 36.4341ZM39.179 34.313C38.4482 34.313 37.8674 34.0502 37.4177 33.4871C36.968 32.9428 36.7431 32.2107 36.7431 31.291C36.7431 30.3712 36.968 29.6392 37.4177 29.0948C37.8674 28.5692 38.4482 28.2877 39.179 28.2877C39.891 28.2877 40.4906 28.5692 40.9404 29.0948C41.3901 29.6392 41.6149 30.3712 41.6149 31.291C41.6149 32.2107 41.3901 32.9428 40.9404 33.4871C40.4906 34.0502 39.891 34.313 39.179 34.313Z" fill="#04172A"/>
<path d="M45.9407 40.0005H48.3016V34.97C48.6389 35.4392 49.0511 35.7959 49.5383 36.0587C50.0255 36.3215 50.5689 36.4341 51.206 36.4341C52.0304 36.4341 52.78 36.2276 53.417 35.7959C54.0541 35.3642 54.56 34.7635 54.9348 33.9751C55.3095 33.2055 55.4969 32.3233 55.4969 31.3097C55.4969 30.2961 55.3095 29.4139 54.9348 28.6443C54.56 27.8747 54.0541 27.2741 53.417 26.8236C52.78 26.3919 52.0304 26.1666 51.206 26.1666C50.5314 26.1666 49.9506 26.3168 49.4634 26.5796C48.9575 26.8611 48.5452 27.2365 48.2267 27.7246V26.4482H45.9407V40.0005ZM50.6439 34.313C49.9131 34.313 49.3135 34.0502 48.8638 33.5059C48.4141 32.9615 48.1892 32.2295 48.1892 31.3097C48.1892 30.4087 48.4141 29.6767 48.8638 29.1136C49.3135 28.5692 49.9131 28.2877 50.6439 28.2877C51.3559 28.2877 51.9368 28.5692 52.3865 29.1136C52.8362 29.6579 53.0798 30.39 53.0798 31.3097C53.0798 32.2295 52.8362 32.9615 52.3865 33.5059C51.9368 34.0502 51.3559 34.313 50.6439 34.313Z" fill="#04172A"/>
</svg>
