<svg width="20" height="20" viewBox="0 0 20 20" fill="none" xmlns="http://www.w3.org/2000/svg">
<path d="M9.9999 5.19307C7.3399 5.19307 5.19289 7.34008 5.19289 10.0001C5.19289 12.6601 7.3399 14.8071 9.9999 14.8071C12.6599 14.8071 14.8069 12.6601 14.8069 10.0001C14.8069 7.34008 12.6599 5.19307 9.9999 5.19307ZM9.9999 13.1241C8.2799 13.1241 6.87591 11.7201 6.87591 10.0001C6.87591 8.28008 8.2799 6.87609 9.9999 6.87609C11.7199 6.87609 13.1239 8.28008 13.1239 10.0001C13.1239 11.7201 11.7199 13.1241 9.9999 13.1241ZM15.0039 3.87609C14.3829 3.87609 13.8809 4.37708 13.8809 4.99808C13.8809 5.62008 14.3829 6.12108 15.0039 6.12108C15.6249 6.12108 16.1269 5.62208 16.1269 4.99808C16.1269 4.85108 16.0979 4.70508 16.0419 4.56908C15.9849 4.43208 15.9029 4.30807 15.7979 4.20407C15.6939 4.10007 15.5699 4.01708 15.4339 3.96108C15.2979 3.90508 15.1509 3.87609 15.0039 3.87609ZM19.3699 10.0001C19.3699 8.70608 19.3819 7.42408 19.3089 6.13308C19.2369 4.63308 18.8949 3.30208 17.7979 2.20508C16.6989 1.10508 15.3699 0.766073 13.8699 0.693073C12.5759 0.620073 11.2939 0.632084 10.0019 0.632084C8.7089 0.632084 7.42689 0.620073 6.13489 0.693073C4.63489 0.766073 3.3039 1.10808 2.2069 2.20508C1.1079 3.30408 0.767907 4.63308 0.694907 6.13308C0.622907 7.42708 0.633903 8.70908 0.633903 10.0001C0.633903 11.2911 0.622907 12.5761 0.694907 13.8671C0.767907 15.3671 1.1099 16.6981 2.2069 17.7951C3.3059 18.8951 4.63489 19.2341 6.13489 19.3071C7.42889 19.3801 8.7109 19.3681 10.0019 19.3681C11.2959 19.3681 12.5779 19.3801 13.8699 19.3071C15.3699 19.2341 16.7009 18.8921 17.7979 17.7951C18.8969 16.6961 19.2369 15.3671 19.3089 13.8671C19.3839 12.5761 19.3699 11.2941 19.3699 10.0001ZM17.3079 15.5271C17.1369 15.9531 16.9309 16.2721 16.5999 16.6001C16.2699 16.9301 15.9529 17.1371 15.5269 17.3081C14.2939 17.7981 11.3669 17.6881 9.9999 17.6881C8.6339 17.6881 5.70389 17.7981 4.47089 17.3101C4.04489 17.1391 3.7259 16.9331 3.3979 16.6021C3.0669 16.2721 2.8609 15.9551 2.6899 15.5291C2.2019 14.2941 2.3129 11.3661 2.3129 10.0001C2.3129 8.63408 2.2019 5.70407 2.6899 4.47107C2.8609 4.04507 3.0669 3.72608 3.3979 3.39808C3.7279 3.07008 4.04489 2.86108 4.47089 2.69008C5.70389 2.20208 8.6339 2.31308 9.9999 2.31308C11.3669 2.31308 14.2959 2.20208 15.5289 2.69008C15.9559 2.86108 16.2739 3.06708 16.6019 3.39808C16.9329 3.72808 17.1389 4.04507 17.3099 4.47107C17.7979 5.70407 17.6879 8.63408 17.6879 10.0001C17.6879 11.3661 17.7979 14.2941 17.3079 15.5271Z" fill="white"/>
</svg>
