<svg width="20" height="16" viewBox="0 0 20 16" fill="none" xmlns="http://www.w3.org/2000/svg">
<path d="M19.9019 1.96014C19.1849 2.27014 18.4049 2.49212 17.6009 2.57912C18.4349 2.08312 19.0599 1.30014 19.3579 0.376136C18.5749 0.842136 17.7169 1.16813 16.8229 1.34113C16.4489 0.942132 15.9959 0.623135 15.4939 0.406135C14.9909 0.188135 14.4499 0.0771317 13.9019 0.0781317C11.6869 0.0781317 9.90591 1.87312 9.90591 4.07712C9.90591 4.38612 9.94391 4.69513 10.0049 4.99312C6.68791 4.82013 3.72992 3.23513 1.76392 0.809134C1.40592 1.42113 1.21791 2.11812 1.21991 2.82712C1.21991 4.21512 1.92592 5.43813 3.00092 6.15813C2.36692 6.13313 1.74791 5.95913 1.19391 5.64913V5.69813C1.19391 7.64113 2.5679 9.25212 4.3979 9.62212C4.0549 9.71112 3.7009 9.75712 3.3459 9.75812C3.0859 9.75812 2.83991 9.73213 2.59091 9.69713C3.09791 11.2811 4.5719 12.4321 6.3269 12.4701C4.9539 13.5451 3.23291 14.1781 1.36591 14.1781C1.02991 14.1781 0.720902 14.1661 0.399902 14.1291C2.1719 15.2661 4.2739 15.9221 6.5379 15.9221C13.8879 15.9221 17.9099 9.83313 17.9099 4.54813C17.9099 4.37413 17.9099 4.20112 17.8979 4.02712C18.6759 3.45812 19.3579 2.75214 19.9019 1.96014Z" fill="white"/>
</svg>
